<svg width="24" height="24" viewBox="0 0 24 24" fill="none" xmlns="http://www.w3.org/2000/svg">
<path fill-rule="evenodd" clip-rule="evenodd" d="M6.54777 6.53263C6.08768 6.53263 5.71428 6.90178 5.71428 7.35662C5.71428 7.81147 6.08768 8.18061 6.54777 8.18061L18.1477 8.18061L15.4828 10.8053C15.156 11.1261 15.156 11.6469 15.4805 11.9699C15.805 12.2929 16.3329 12.294 16.6596 11.9721L20.7548 7.94001C20.9949 7.7049 21.0649 7.34893 20.9371 7.04241C20.8082 6.73369 20.5048 6.53263 20.167 6.53263L6.54777 6.53263ZM15.2376 3.32413C15.2376 3.11429 15.3187 2.90334 15.481 2.74294C15.8055 2.41994 16.3322 2.41884 16.659 2.74074L18.2893 4.34478C18.616 4.66668 18.616 5.18744 18.2915 5.51045C17.967 5.83235 17.4391 5.83345 17.1124 5.51264L15.4832 3.90751C15.3187 3.74711 15.2376 3.53507 15.2376 3.32413ZM3.06334 16.859C3.02111 16.9601 3 17.0666 3 17.1732C3 17.3885 3.08446 17.5995 3.2456 17.7566L6.75181 21.2074C7.07853 21.5283 7.60641 21.5272 7.93091 21.2053C8.25542 20.8822 8.25431 20.3604 7.92869 20.0396L5.85164 17.9972L17.4538 17.9972C17.9139 17.9972 18.2873 17.6291 18.2873 17.1732C18.2873 16.7184 17.9139 16.3492 17.4538 16.3492L3.83349 16.3492C3.49565 16.3492 3.19226 16.5503 3.06334 16.859ZM5.7125 14.1607C5.54803 14.3222 5.4669 14.5342 5.4669 14.7452C5.4669 14.955 5.54803 15.166 5.71028 15.3264C6.03478 15.6494 6.56155 15.6505 6.88828 15.3297L8.51858 13.7256C8.84531 13.4026 8.84531 12.8819 8.5208 12.56C8.1963 12.2369 7.66842 12.2358 7.34169 12.5567L5.7125 14.1607Z" fill="#333333"/>
</svg>
