<svg width="24" height="24" viewBox="0 0 24 24" fill="none" xmlns="http://www.w3.org/2000/svg">
<path fill-rule="evenodd" clip-rule="evenodd" d="M21.2442 11.5779C21.6612 11.5779 22.0002 11.2389 22.0002 10.8219V8.25288C22.0002 4.39188 19.5902 1.99988 15.7532 1.99988H8.25324C4.39224 1.99988 2.00024 4.39188 2.00024 8.25588V15.7559C2.00024 19.6079 4.39224 21.9999 8.25324 21.9999H15.7562C19.6082 21.9999 22.0002 19.6079 21.9972 15.7529C21.9972 15.3309 21.6542 14.9879 21.2322 14.9879C20.8092 14.9879 20.4672 15.3309 20.4672 15.7529C20.4672 18.7869 18.7962 20.4669 15.7532 20.4669H8.25324C5.21024 20.4669 3.53024 18.7869 3.53024 15.7529V8.25288C3.53024 5.20988 5.21024 3.52988 8.25624 3.52988H15.7562C18.8002 3.52988 20.4702 5.19988 20.4702 8.25288V10.7949V10.7969C20.4712 11.2189 20.8132 11.5599 21.2352 11.5599V11.5779H21.2442ZM8.67175 13.3722L7.4347 14.609C6.88309 15.1333 6.85234 16.0031 7.36597 16.5654L7.40576 16.5943C7.93386 17.1223 8.78388 17.1368 9.32826 16.6269L10.5599 15.3955C11.1187 14.8748 11.1495 13.9996 10.6286 13.4391C10.1059 12.8822 9.2306 12.8497 8.67175 13.3722ZM16.6407 16.6487C16.1769 17.1091 15.4275 17.1186 14.9527 16.6676L14.8927 16.6094L7.3517 9.09968C6.89104 8.61255 6.88157 7.85513 7.33119 7.35857C7.79186 6.88872 8.54596 6.87929 9.01766 7.33814C9.0224 7.34128 9.02555 7.34442 9.03029 7.34914L11.9725 10.2814L14.6498 7.61313C15.1309 7.15586 15.8898 7.16057 16.3662 7.62413C16.4514 7.70899 16.524 7.80485 16.5792 7.9117C16.8521 8.38469 16.7732 8.97868 16.3867 9.36525L13.7205 12.0194L16.6202 14.9092C17.1093 15.3696 17.1282 16.138 16.6644 16.6236C16.6608 16.6289 16.6562 16.6333 16.6514 16.6378C16.6478 16.6412 16.6441 16.6446 16.6407 16.6487Z" fill="#333333"/>
</svg>
