<svg width="22" height="22" viewBox="0 0 22 22" fill="none" xmlns="http://www.w3.org/2000/svg">
<path fill-rule="evenodd" clip-rule="evenodd" d="M3.88818 7.09866C4.1829 6.80113 4.6607 6.79908 4.95543 7.10071L11.534 13.8162C11.8287 14.1169 11.8277 14.6025 11.532 14.9011C11.3851 15.0493 11.192 15.125 10.9999 15.125C10.8057 15.125 10.6126 15.0493 10.4657 14.899L3.88717 8.1835C3.59244 7.88289 3.59345 7.39722 3.88818 7.09866ZM17.0435 7.10081C17.3382 6.79918 17.816 6.80123 18.1107 7.09877C18.4065 7.39733 18.4075 7.883 18.1138 8.1836L13.7451 12.6436C13.5983 12.7939 13.4042 12.8695 13.211 12.8695C13.0189 12.8695 12.8258 12.7939 12.6789 12.6456C12.3832 12.3471 12.3822 11.8614 12.6759 11.5608L17.0435 7.10081Z" fill="#333333"/>
</svg>
