<svg width="16" height="16" viewBox="0 0 16 16" fill="none" xmlns="http://www.w3.org/2000/svg">
<path fill-rule="evenodd" clip-rule="evenodd" d="M9.07807 4.75C9.07807 4.33579 8.74229 4 8.32807 4C7.91386 4 7.57807 4.33579 7.57807 4.75V7.57417H4.75C4.33579 7.57417 4 7.90995 4 8.32417C4 8.73838 4.33579 9.07417 4.75 9.07417H7.57807V11.8984C7.57807 12.3126 7.91386 12.6484 8.32807 12.6484C8.74229 12.6484 9.07807 12.3126 9.07807 11.8984V9.07417H11.9058C12.32 9.07417 12.6558 8.73838 12.6558 8.32417C12.6558 7.90995 12.32 7.57417 11.9058 7.57417H9.07807V4.75Z" fill="#FF8465"/>
</svg>
