<svg width="19" height="19" viewBox="0 0 19 19" fill="none" xmlns="http://www.w3.org/2000/svg">
<path d="M9.50049 17C9.88299 17 10.2662 16.9715 10.6397 16.9145C10.9375 16.8688 11.1452 16.592 11.0957 16.2928C11.05 15.995 10.7717 15.791 10.4747 15.836C10.156 15.8848 9.82824 15.9095 9.50049 15.9095C5.96649 15.9095 3.09174 13.034 3.09174 9.5C3.09174 5.966 5.96649 3.0905 9.50049 3.0905C13.0352 3.0905 15.91 5.966 15.91 9.5C15.91 11.5048 14.9987 13.3572 13.408 14.5805C13.1702 14.7657 13.1245 15.1078 13.309 15.3463C13.492 15.584 13.8355 15.629 14.074 15.4453C15.9332 14.0128 17.0005 11.846 17.0005 9.5C17.0005 5.3645 13.636 2 9.50049 2C5.36499 2 2.00049 5.3645 2.00049 9.5C2.00049 13.6355 5.36499 17 9.50049 17Z" fill="#BBBBBB"/>
</svg>
