<svg width="20" height="20" viewBox="0 0 20 20" fill="none" xmlns="http://www.w3.org/2000/svg">
<path d="M14.5815 18.2662C14.479 18.2687 14.3774 18.2428 14.2882 18.1912L10.0065 15.9362L6.23654 17.9662C5.62154 18.2995 4.85154 18.0712 4.51821 17.4553C4.51404 17.4478 4.50987 17.4403 4.50571 17.432C4.37487 17.1745 4.32904 16.8837 4.37404 16.5987L5.10737 12.2703L2.04237 9.167C1.54154 8.65034 1.54154 7.82867 2.04237 7.31117C2.23737 7.10617 2.49571 6.97367 2.77571 6.93534L6.97821 6.297L8.84737 2.40284C9.13821 1.7695 9.88737 1.49117 10.5215 1.782C10.7965 1.90784 11.0165 2.12867 11.1424 2.40284L13.0199 6.31034L17.2365 6.95617C17.5774 7.007 17.8832 7.19534 18.0832 7.47617C18.4565 8.01284 18.3999 8.73784 17.9482 9.21034L14.8974 12.277L15.3224 14.6095C15.3815 14.9595 15.1507 15.2937 14.8015 15.3595C14.4582 15.4212 14.1299 15.1928 14.0682 14.8487L13.6357 12.5162C13.5632 12.0887 13.699 11.652 14.0024 11.3428L17.0607 8.2545L12.844 7.60034C12.4165 7.53117 12.054 7.24784 11.8832 6.85034L10.0065 2.9595L8.10654 6.912C7.93571 7.31034 7.57321 7.59284 7.14571 7.662L2.94321 8.30034L5.97904 11.3837C6.28154 11.6878 6.41737 12.1187 6.34571 12.5412L5.61237 16.8695L9.38154 14.8478C9.75487 14.6378 10.2107 14.6378 10.584 14.8478L14.8599 17.1028C15.1207 17.2453 15.2532 17.5462 15.1824 17.8353C15.1174 18.1245 14.8624 18.3303 14.5665 18.3353L14.5815 18.2662Z" fill="#FF8465"/>
</svg>
